<?xml version="1.0" encoding="UTF-8"?>
<svg xmlns:xlink="http://www.w3.org/1999/xlink" id="mermaid-svg-3" width="100%" xmlns="http://www.w3.org/2000/svg" class="flowchart" style="max-width: 100%;" viewBox="-38.650000000000006 -38.650000000000006 2445.716748046875 850.3" role="graphics-document document" aria-roledescription="flowchart-v2" height="100%"><style>#mermaid-svg-3{font-family:"trebuchet ms",verdana,arial,sans-serif;font-size:16px;fill:#333;}@keyframes edge-animation-frame{from{stroke-dashoffset:0;}}@keyframes dash{to{stroke-dashoffset:0;}}#mermaid-svg-3 .edge-animation-slow{stroke-dasharray:9,5!important;stroke-dashoffset:900;animation:dash 50s linear infinite;stroke-linecap:round;}#mermaid-svg-3 .edge-animation-fast{stroke-dasharray:9,5!important;stroke-dashoffset:900;animation:dash 20s linear infinite;stroke-linecap:round;}#mermaid-svg-3 .error-icon{fill:#552222;}#mermaid-svg-3 .error-text{fill:#552222;stroke:#552222;}#mermaid-svg-3 .edge-thickness-normal{stroke-width:1px;}#mermaid-svg-3 .edge-thickness-thick{stroke-width:3.5px;}#mermaid-svg-3 .edge-pattern-solid{stroke-dasharray:0;}#mermaid-svg-3 .edge-thickness-invisible{stroke-width:0;fill:none;}#mermaid-svg-3 .edge-pattern-dashed{stroke-dasharray:3;}#mermaid-svg-3 .edge-pattern-dotted{stroke-dasharray:2;}#mermaid-svg-3 .marker{fill:#333333;stroke:#333333;}#mermaid-svg-3 .marker.cross{stroke:#333333;}#mermaid-svg-3 svg{font-family:"trebuchet ms",verdana,arial,sans-serif;font-size:16px;}#mermaid-svg-3 p{margin:0;}#mermaid-svg-3 .label{font-family:"trebuchet ms",verdana,arial,sans-serif;color:#333;}#mermaid-svg-3 .cluster-label text{fill:#333;}#mermaid-svg-3 .cluster-label span{color:#333;}#mermaid-svg-3 .cluster-label span p{background-color:transparent;}#mermaid-svg-3 .label text,#mermaid-svg-3 span{fill:#333;color:#333;}#mermaid-svg-3 .node rect,#mermaid-svg-3 .node circle,#mermaid-svg-3 .node ellipse,#mermaid-svg-3 .node polygon,#mermaid-svg-3 .node path{fill:#ECECFF;stroke:#9370DB;stroke-width:1px;}#mermaid-svg-3 .rough-node .label text,#mermaid-svg-3 .node .label text,#mermaid-svg-3 .image-shape .label,#mermaid-svg-3 .icon-shape .label{text-anchor:middle;}#mermaid-svg-3 .node .katex path{fill:#000;stroke:#000;stroke-width:1px;}#mermaid-svg-3 .rough-node .label,#mermaid-svg-3 .node .label,#mermaid-svg-3 .image-shape .label,#mermaid-svg-3 .icon-shape .label{text-align:center;}#mermaid-svg-3 .node.clickable{cursor:pointer;}#mermaid-svg-3 .root .anchor path{fill:#333333!important;stroke-width:0;stroke:#333333;}#mermaid-svg-3 .arrowheadPath{fill:#333333;}#mermaid-svg-3 .edgePath .path{stroke:#333333;stroke-width:2.0px;}#mermaid-svg-3 .flowchart-link{stroke:#333333;fill:none;}#mermaid-svg-3 .edgeLabel{background-color:rgba(232,232,232, 0.8);text-align:center;}#mermaid-svg-3 .edgeLabel p{background-color:rgba(232,232,232, 0.8);}#mermaid-svg-3 .edgeLabel rect{opacity:0.5;background-color:rgba(232,232,232, 0.8);fill:rgba(232,232,232, 0.8);}#mermaid-svg-3 .labelBkg{background-color:rgba(232, 232, 232, 0.5);}#mermaid-svg-3 .cluster rect{fill:#ffffde;stroke:#aaaa33;stroke-width:1px;}#mermaid-svg-3 .cluster text{fill:#333;}#mermaid-svg-3 .cluster span{color:#333;}#mermaid-svg-3 div.mermaidTooltip{position:absolute;text-align:center;max-width:200px;padding:2px;font-family:"trebuchet ms",verdana,arial,sans-serif;font-size:12px;background:hsl(80, 100%, 96.2745098039%);border:1px solid #aaaa33;border-radius:2px;pointer-events:none;z-index:100;}#mermaid-svg-3 .flowchartTitleText{text-anchor:middle;font-size:18px;fill:#333;}#mermaid-svg-3 rect.text{fill:none;stroke-width:0;}#mermaid-svg-3 .icon-shape,#mermaid-svg-3 .image-shape{background-color:rgba(232,232,232, 0.8);text-align:center;}#mermaid-svg-3 .icon-shape p,#mermaid-svg-3 .image-shape p{background-color:rgba(232,232,232, 0.8);padding:2px;}#mermaid-svg-3 .icon-shape rect,#mermaid-svg-3 .image-shape rect{opacity:0.5;background-color:rgba(232,232,232, 0.8);fill:rgba(232,232,232, 0.8);}#mermaid-svg-3 .label-icon{display:inline-block;height:1em;overflow:visible;vertical-align:-0.125em;}#mermaid-svg-3 .node .label-icon path{fill:currentColor;stroke:revert;stroke-width:revert;}#mermaid-svg-3 :root{--mermaid-font-family:"trebuchet ms",verdana,arial,sans-serif;}</style><g><marker id="mermaid-svg-3_flowchart-v2-pointEnd" class="marker flowchart-v2" viewBox="0 0 10 10" refX="5" refY="5" markerUnits="userSpaceOnUse" markerWidth="8" markerHeight="8" orient="auto"><path d="M 0 0 L 10 5 L 0 10 z" class="arrowMarkerPath" style="stroke-width: 1px; stroke-dasharray: 1px, 0px;"/></marker><marker id="mermaid-svg-3_flowchart-v2-pointStart" class="marker flowchart-v2" viewBox="0 0 10 10" refX="4.5" refY="5" markerUnits="userSpaceOnUse" markerWidth="8" markerHeight="8" orient="auto"><path d="M 0 5 L 10 10 L 10 0 z" class="arrowMarkerPath" style="stroke-width: 1px; stroke-dasharray: 1px, 0px;"/></marker><marker id="mermaid-svg-3_flowchart-v2-circleEnd" class="marker flowchart-v2" viewBox="0 0 10 10" refX="11" refY="5" markerUnits="userSpaceOnUse" markerWidth="11" markerHeight="11" orient="auto"><circle cx="5" cy="5" r="5" class="arrowMarkerPath" style="stroke-width: 1px; stroke-dasharray: 1px, 0px;"/></marker><marker id="mermaid-svg-3_flowchart-v2-circleStart" class="marker flowchart-v2" viewBox="0 0 10 10" refX="-1" refY="5" markerUnits="userSpaceOnUse" markerWidth="11" markerHeight="11" orient="auto"><circle cx="5" cy="5" r="5" class="arrowMarkerPath" style="stroke-width: 1px; stroke-dasharray: 1px, 0px;"/></marker><marker id="mermaid-svg-3_flowchart-v2-crossEnd" class="marker cross flowchart-v2" viewBox="0 0 11 11" refX="12" refY="5.2" markerUnits="userSpaceOnUse" markerWidth="11" markerHeight="11" orient="auto"><path d="M 1,1 l 9,9 M 10,1 l -9,9" class="arrowMarkerPath" style="stroke-width: 2px; stroke-dasharray: 1px, 0px;"/></marker><marker id="mermaid-svg-3_flowchart-v2-crossStart" class="marker cross flowchart-v2" viewBox="0 0 11 11" refX="-1" refY="5.2" markerUnits="userSpaceOnUse" markerWidth="11" markerHeight="11" orient="auto"><path d="M 1,1 l 9,9 M 10,1 l -9,9" class="arrowMarkerPath" style="stroke-width: 2px; stroke-dasharray: 1px, 0px;"/></marker><g class="root"><g class="clusters"><g class="cluster" id="SUCCESS" data-look="classic"><rect style="" x="2050.4166564941406" y="18" width="310" height="420"/><g class="cluster-label" transform="translate(2172.0333251953125, 18)"><foreignObject width="66.76666259765625" height="24"><div style="display: table-cell; white-space: nowrap; line-height: 1.5; max-width: 200px; text-align: center;" xmlns="http://www.w3.org/1999/xhtml"><span class="nodeLabel"><p>✅ Успех</p></span></div></foreignObject></g></g><g class="cluster" id="CONTRACT" data-look="classic"><rect style="" x="1690.4166564941406" y="18" width="310" height="420"/><g class="cluster-label" transform="translate(1802.9833221435547, 18)"><foreignObject width="84.86666870117188" height="24"><div style="display: table-cell; white-space: nowrap; line-height: 1.5; max-width: 200px; text-align: center;" xmlns="http://www.w3.org/1999/xhtml"><span class="nodeLabel"><p>📝 Договор</p></span></div></foreignObject></g></g><g class="cluster" id="NEGOTIATION" data-look="classic"><rect style="" x="1205.6999969482422" y="20" width="310" height="618"/><g class="cluster-label" transform="translate(1303.375, 20)"><foreignObject width="114.64999389648438" height="24"><div style="display: table-cell; white-space: nowrap; line-height: 1.5; max-width: 200px; text-align: center;" xmlns="http://www.w3.org/1999/xhtml"><span class="nodeLabel"><p>🤝 Переговоры</p></span></div></foreignObject></g></g><g class="cluster" id="PROPOSAL" data-look="classic"><rect style="" x="720.9833374023438" y="8" width="310" height="757"/><g class="cluster-label" transform="translate(807.9000015258789, 8)"><foreignObject width="136.1666717529297" height="24"><div style="display: table-cell; white-space: nowrap; line-height: 1.5; max-width: 200px; text-align: center;" xmlns="http://www.w3.org/1999/xhtml"><span class="nodeLabel"><p>📊 КП отправлено</p></span></div></foreignObject></g></g><g class="cluster" id="QUALIFY" data-look="classic"><rect style="" x="368" y="32" width="302.98333740234375" height="680"/><g class="cluster-label" transform="translate(452.30833435058594, 32)"><foreignObject width="134.36666870117188" height="24"><div style="display: table-cell; white-space: nowrap; line-height: 1.5; max-width: 200px; text-align: center;" xmlns="http://www.w3.org/1999/xhtml"><span class="nodeLabel"><p>🎯 Квалификация</p></span></div></foreignObject></g></g><g class="cluster" id="INCOMING" data-look="classic"><rect style="" x="8" y="32" width="310" height="680"/><g class="cluster-label" transform="translate(112.84166717529297, 32)"><foreignObject width="100.31666564941406" height="24"><div style="display: table-cell; white-space: nowrap; line-height: 1.5; max-width: 200px; text-align: center;" xmlns="http://www.w3.org/1999/xhtml"><span class="nodeLabel"><p>📥 Входящие</p></span></div></foreignObject></g></g></g><g class="edgePaths"><path d="M293,614L297.167,614C301.333,614,309.667,614,318,614C326.333,614,334.667,614,343,614C351.333,614,359.667,614,367.333,614C375,614,382,614,385.5,614L389,614" id="L_A1_B1_0" class="edge-thickness-normal edge-pattern-solid edge-thickness-normal edge-pattern-solid flowchart-link" style="" marker-end="url(#mermaid-svg-3_flowchart-v2-pointEnd)"/><path d="M293,322L297.167,322C301.333,322,309.667,322,318,322C326.333,322,334.667,322,343,322C351.333,322,359.667,322,369.817,322C379.967,322,391.933,322,397.917,322L403.9,322" id="L_A2_B2_0" class="edge-thickness-normal edge-pattern-solid edge-thickness-normal edge-pattern-solid flowchart-link" style="" marker-end="url(#mermaid-svg-3_flowchart-v2-pointEnd)"/><path d="M283.492,118L289.243,118C294.994,118,306.497,118,316.415,118C326.333,118,334.667,118,343,118C351.333,118,359.667,118,370.276,118C380.886,118,393.772,118,400.215,118L406.658,118" id="L_A3_B3_0" class="edge-thickness-normal edge-pattern-solid edge-thickness-normal edge-pattern-solid flowchart-link" style="" marker-end="url(#mermaid-svg-3_flowchart-v2-pointEnd)"/><path d="M645.983,614L650.15,614C654.317,614,662.65,614,670.983,614C679.317,614,687.65,614,695.983,614C704.317,614,712.65,614,720.317,614C727.983,614,734.983,614,738.483,614L741.983,614" id="L_B1_C1_0" class="edge-thickness-normal edge-pattern-solid edge-thickness-normal edge-pattern-solid flowchart-link" style="" marker-end="url(#mermaid-svg-3_flowchart-v2-pointEnd)"/><path d="M631.083,322L637.733,322C644.383,322,657.683,322,668.5,322C679.317,322,687.65,322,695.983,322C704.317,322,712.65,322,720.317,322C727.983,322,734.983,322,738.483,322L741.983,322" id="L_B2_C2_0" class="edge-thickness-normal edge-pattern-solid edge-thickness-normal edge-pattern-solid flowchart-link" style="" marker-end="url(#mermaid-svg-3_flowchart-v2-pointEnd)"/><path d="M628.325,118L635.435,118C642.544,118,656.764,118,668.04,118C679.317,118,687.65,118,695.983,118C704.317,118,712.65,118,720.317,118C727.983,118,734.983,118,738.483,118L741.983,118" id="L_B3_C3_0" class="edge-thickness-normal edge-pattern-solid edge-thickness-normal edge-pattern-solid flowchart-link" style="" marker-end="url(#mermaid-svg-3_flowchart-v2-pointEnd)"/><path d="M1002.342,539L1007.116,536.167C1011.889,533.333,1021.436,527.667,1040.77,524.833C1060.103,522,1089.222,522,1118.342,522C1147.461,522,1176.581,522,1194.64,522C1212.7,522,1219.7,522,1223.2,522L1226.7,522" id="L_C1_D1_0" class="edge-thickness-normal edge-pattern-solid edge-thickness-normal edge-pattern-solid flowchart-link" style="" marker-end="url(#mermaid-svg-3_flowchart-v2-pointEnd)"/><path d="M1005.983,322L1010.15,322C1014.317,322,1022.65,322,1041.376,322C1060.103,322,1089.222,322,1118.342,322C1147.461,322,1176.581,322,1194.64,322C1212.7,322,1219.7,322,1223.2,322L1226.7,322" id="L_C2_D2_0" class="edge-thickness-normal edge-pattern-solid edge-thickness-normal edge-pattern-solid flowchart-link" style="" marker-end="url(#mermaid-svg-3_flowchart-v2-pointEnd)"/><path d="M1005.983,118L1010.15,118C1014.317,118,1022.65,118,1041.376,118C1060.103,118,1089.222,118,1118.342,118C1147.461,118,1176.581,118,1194.64,118C1212.7,118,1219.7,118,1223.2,118L1226.7,118" id="L_C3_D3_0" class="edge-thickness-normal edge-pattern-solid edge-thickness-normal edge-pattern-solid flowchart-link" style="" marker-end="url(#mermaid-svg-3_flowchart-v2-pointEnd)"/><path d="M1398.94,447L1418.4,408.833C1437.86,370.667,1476.78,294.333,1510.8,256.167C1544.819,218,1573.939,218,1603.058,218C1632.178,218,1661.297,218,1679.586,215.835C1697.875,213.67,1705.333,209.339,1709.062,207.174L1712.791,205.009" id="L_D1_E1_0" class="edge-thickness-normal edge-pattern-solid edge-thickness-normal edge-pattern-solid flowchart-link" style="" marker-end="url(#mermaid-svg-3_flowchart-v2-pointEnd)"/><path d="M1490.7,327.032L1494.867,327.194C1499.033,327.355,1507.367,327.677,1526.093,327.839C1544.819,328,1573.939,328,1603.058,328C1632.178,328,1661.297,328,1679.357,328C1697.417,328,1704.417,328,1707.917,328L1711.417,328" id="L_D2_E2_0" class="edge-thickness-normal edge-pattern-solid edge-thickness-normal edge-pattern-solid flowchart-link" style="" marker-end="url(#mermaid-svg-3_flowchart-v2-pointEnd)"/><path d="M1490.7,118L1494.867,118C1499.033,118,1507.367,118,1526.093,118C1544.819,118,1573.939,118,1603.058,118C1632.178,118,1661.297,118,1679.358,118.226C1697.419,118.452,1704.422,118.904,1707.924,119.129L1711.425,119.355" id="L_D3_E1_0" class="edge-thickness-normal edge-pattern-solid edge-thickness-normal edge-pattern-solid flowchart-link" style="" marker-end="url(#mermaid-svg-3_flowchart-v2-pointEnd)"/><path d="M1975.417,128L1979.583,128C1983.75,128,1992.083,128,2000.417,128C2008.75,128,2017.083,128,2025.417,128C2033.75,128,2042.083,128,2049.75,128C2057.417,128,2064.417,128,2067.917,128L2071.417,128" id="L_E1_F1_0" class="edge-thickness-normal edge-pattern-solid edge-thickness-normal edge-pattern-solid flowchart-link" style="" marker-end="url(#mermaid-svg-3_flowchart-v2-pointEnd)"/><path d="M1975.417,328L1979.583,328C1983.75,328,1992.083,328,2000.417,328C2008.75,328,2017.083,328,2025.417,328C2033.75,328,2042.083,328,2049.75,328C2057.417,328,2064.417,328,2067.917,328L2071.417,328" id="L_E2_F2_0" class="edge-thickness-normal edge-pattern-solid edge-thickness-normal edge-pattern-solid flowchart-link" style="" marker-end="url(#mermaid-svg-3_flowchart-v2-pointEnd)"/><path d="M1005.983,686.129L1010.15,688.441C1014.317,690.753,1022.65,695.376,1041.376,697.688C1060.103,700,1089.222,700,1118.342,700C1147.461,700,1176.581,700,1206.85,700C1237.119,700,1268.539,700,1284.249,700L1299.958,700" id="L_C1_LOST1_0" class="edge-thickness-normal edge-pattern-dotted edge-thickness-normal edge-pattern-solid flowchart-link" style="" marker-end="url(#mermaid-svg-3_flowchart-v2-pointEnd)"/><path d="M1490.7,527.032L1494.867,527.194C1499.033,527.355,1507.367,527.677,1526.093,527.839C1544.819,528,1573.939,528,1603.058,528C1632.178,528,1661.297,528,1691.567,528C1721.836,528,1753.256,528,1768.965,528L1784.675,528" id="L_D1_LOST2_0" class="edge-thickness-normal edge-pattern-dotted edge-thickness-normal edge-pattern-solid flowchart-link" style="" marker-end="url(#mermaid-svg-3_flowchart-v2-pointEnd)"/></g><g class="edgeLabels"><g class="edgeLabel"><g class="label" transform="translate(0, 0)"><foreignObject width="0" height="0"><div style="display: table-cell; white-space: nowrap; line-height: 1.5; max-width: 200px; text-align: center;" xmlns="http://www.w3.org/1999/xhtml" class="labelBkg"><span class="edgeLabel"></span></div></foreignObject></g></g><g class="edgeLabel"><g class="label" transform="translate(0, 0)"><foreignObject width="0" height="0"><div style="display: table-cell; white-space: nowrap; line-height: 1.5; max-width: 200px; text-align: center;" xmlns="http://www.w3.org/1999/xhtml" class="labelBkg"><span class="edgeLabel"></span></div></foreignObject></g></g><g class="edgeLabel"><g class="label" transform="translate(0, 0)"><foreignObject width="0" height="0"><div style="display: table-cell; white-space: nowrap; line-height: 1.5; max-width: 200px; text-align: center;" xmlns="http://www.w3.org/1999/xhtml" class="labelBkg"><span class="edgeLabel"></span></div></foreignObject></g></g><g class="edgeLabel"><g class="label" transform="translate(0, 0)"><foreignObject width="0" height="0"><div style="display: table-cell; white-space: nowrap; line-height: 1.5; max-width: 200px; text-align: center;" xmlns="http://www.w3.org/1999/xhtml" class="labelBkg"><span class="edgeLabel"></span></div></foreignObject></g></g><g class="edgeLabel"><g class="label" transform="translate(0, 0)"><foreignObject width="0" height="0"><div style="display: table-cell; white-space: nowrap; line-height: 1.5; max-width: 200px; text-align: center;" xmlns="http://www.w3.org/1999/xhtml" class="labelBkg"><span class="edgeLabel"></span></div></foreignObject></g></g><g class="edgeLabel"><g class="label" transform="translate(0, 0)"><foreignObject width="0" height="0"><div style="display: table-cell; white-space: nowrap; line-height: 1.5; max-width: 200px; text-align: center;" xmlns="http://www.w3.org/1999/xhtml" class="labelBkg"><span class="edgeLabel"></span></div></foreignObject></g></g><g class="edgeLabel"><g class="label" transform="translate(0, 0)"><foreignObject width="0" height="0"><div style="display: table-cell; white-space: nowrap; line-height: 1.5; max-width: 200px; text-align: center;" xmlns="http://www.w3.org/1999/xhtml" class="labelBkg"><span class="edgeLabel"></span></div></foreignObject></g></g><g class="edgeLabel"><g class="label" transform="translate(0, 0)"><foreignObject width="0" height="0"><div style="display: table-cell; white-space: nowrap; line-height: 1.5; max-width: 200px; text-align: center;" xmlns="http://www.w3.org/1999/xhtml" class="labelBkg"><span class="edgeLabel"></span></div></foreignObject></g></g><g class="edgeLabel"><g class="label" transform="translate(0, 0)"><foreignObject width="0" height="0"><div style="display: table-cell; white-space: nowrap; line-height: 1.5; max-width: 200px; text-align: center;" xmlns="http://www.w3.org/1999/xhtml" class="labelBkg"><span class="edgeLabel"></span></div></foreignObject></g></g><g class="edgeLabel"><g class="label" transform="translate(0, 0)"><foreignObject width="0" height="0"><div style="display: table-cell; white-space: nowrap; line-height: 1.5; max-width: 200px; text-align: center;" xmlns="http://www.w3.org/1999/xhtml" class="labelBkg"><span class="edgeLabel"></span></div></foreignObject></g></g><g class="edgeLabel"><g class="label" transform="translate(0, 0)"><foreignObject width="0" height="0"><div style="display: table-cell; white-space: nowrap; line-height: 1.5; max-width: 200px; text-align: center;" xmlns="http://www.w3.org/1999/xhtml" class="labelBkg"><span class="edgeLabel"></span></div></foreignObject></g></g><g class="edgeLabel"><g class="label" transform="translate(0, 0)"><foreignObject width="0" height="0"><div style="display: table-cell; white-space: nowrap; line-height: 1.5; max-width: 200px; text-align: center;" xmlns="http://www.w3.org/1999/xhtml" class="labelBkg"><span class="edgeLabel"></span></div></foreignObject></g></g><g class="edgeLabel"><g class="label" transform="translate(0, 0)"><foreignObject width="0" height="0"><div style="display: table-cell; white-space: nowrap; line-height: 1.5; max-width: 200px; text-align: center;" xmlns="http://www.w3.org/1999/xhtml" class="labelBkg"><span class="edgeLabel"></span></div></foreignObject></g></g><g class="edgeLabel"><g class="label" transform="translate(0, 0)"><foreignObject width="0" height="0"><div style="display: table-cell; white-space: nowrap; line-height: 1.5; max-width: 200px; text-align: center;" xmlns="http://www.w3.org/1999/xhtml" class="labelBkg"><span class="edgeLabel"></span></div></foreignObject></g></g><g class="edgeLabel" transform="translate(1118.341667175293, 700)"><g class="label" transform="translate(-62.35832977294922, -12)"><foreignObject width="124.71665954589844" height="24"><div style="display: table-cell; white-space: nowrap; line-height: 1.5; max-width: 200px; text-align: center;" xmlns="http://www.w3.org/1999/xhtml" class="labelBkg"><span class="edgeLabel"><p>❌ Нет прозвона</p></span></div></foreignObject></g></g><g class="edgeLabel" transform="translate(1603.0583267211914, 528)"><g class="label" transform="translate(-62.35832977294922, -12)"><foreignObject width="124.71665954589844" height="24"><div style="display: table-cell; white-space: nowrap; line-height: 1.5; max-width: 200px; text-align: center;" xmlns="http://www.w3.org/1999/xhtml" class="labelBkg"><span class="edgeLabel"><p>❌ Нет прозвона</p></span></div></foreignObject></g></g></g><g class="nodes"><g class="node default" id="flowchart-A1-0" transform="translate(163, 614)"><rect class="basic label-container" style="" x="-130" y="-63" width="260" height="126"/><g class="label" style="" transform="translate(-100, -48)"><rect/><foreignObject width="200" height="96"><div style="display: table; white-space: break-spaces; line-height: 1.5; max-width: 200px; text-align: center; width: 200px;" xmlns="http://www.w3.org/1999/xhtml"><span class="nodeLabel"><p>Новый лид<br />✅ Задача: Первичный звонок<br />⏰ 1 час</p></span></div></foreignObject></g></g><g class="node default" id="flowchart-A2-1" transform="translate(163, 322)"><rect class="basic label-container" style="" x="-130" y="-63" width="260" height="126"/><g class="label" style="" transform="translate(-100, -48)"><rect/><foreignObject width="200" height="96"><div style="display: table; white-space: break-spaces; line-height: 1.5; max-width: 200px; text-align: center; width: 200px;" xmlns="http://www.w3.org/1999/xhtml"><span class="nodeLabel"><p>Заявка с сайта<br />✅ Задача: Обработать за 15 мин<br />📞 8 999 123-45-67</p></span></div></foreignObject></g></g><g class="node default" id="flowchart-A3-2" transform="translate(163, 118)"><rect class="basic label-container" style="" x="-120.49166870117188" y="-51" width="240.98333740234375" height="102"/><g class="label" style="" transform="translate(-90.49166870117188, -36)"><rect/><foreignObject width="180.98333740234375" height="72"><div style="display: table-cell; white-space: nowrap; line-height: 1.5; max-width: 200px; text-align: center;" xmlns="http://www.w3.org/1999/xhtml"><span class="nodeLabel"><p>Повторный звонок<br />⚠️ Просрочено на 2 дня<br />🔥 Срочно!</p></span></div></foreignObject></g></g><g class="node default" id="flowchart-B1-3" transform="translate(519.4916687011719, 614)"><rect class="basic label-container" style="" x="-126.49166870117188" y="-63" width="252.98333740234375" height="126"/><g class="label" style="" transform="translate(-96.49166870117188, -48)"><rect/><foreignObject width="192.98333740234375" height="96"><div style="display: table-cell; white-space: nowrap; line-height: 1.5; max-width: 200px; text-align: center;" xmlns="http://www.w3.org/1999/xhtml"><span class="nodeLabel"><p>Коттеджный проект<br />✅ Задачи: Замер, расчет<br />💰 250 000 руб<br />🎯 Вероятность: 70%</p></span></div></foreignObject></g></g><g class="node default" id="flowchart-B2-4" transform="translate(519.4916687011719, 322)"><rect class="basic label-container" style="" x="-111.59166717529297" y="-63" width="223.18333435058594" height="126"/><g class="label" style="" transform="translate(-81.59166717529297, -48)"><rect/><foreignObject width="163.18333435058594" height="96"><div style="display: table-cell; white-space: nowrap; line-height: 1.5; max-width: 200px; text-align: center;" xmlns="http://www.w3.org/1999/xhtml"><span class="nodeLabel"><p>Балкон остекление<br />✅ Задача: Расчет КП<br />💰 45 000 руб<br />⏰ До 18:00</p></span></div></foreignObject></g></g><g class="node default" id="flowchart-B3-5" transform="translate(519.4916687011719, 118)"><rect class="basic label-container" style="" x="-108.83333587646484" y="-51" width="217.6666717529297" height="102"/><g class="label" style="" transform="translate(-78.83333587646484, -36)"><rect/><foreignObject width="157.6666717529297" height="72"><div style="display: table-cell; white-space: nowrap; line-height: 1.5; max-width: 200px; text-align: center;" xmlns="http://www.w3.org/1999/xhtml"><span class="nodeLabel"><p>Одно окно<br />🔄 Низкий приоритет<br />💰 8 000 руб</p></span></div></foreignObject></g></g><g class="node default" id="flowchart-C1-6" transform="translate(875.9833374023438, 614)"><rect class="basic label-container" style="" x="-130" y="-75" width="260" height="150"/><g class="label" style="" transform="translate(-100, -60)"><rect/><foreignObject width="200" height="120"><div style="display: table; white-space: break-spaces; line-height: 1.5; max-width: 200px; text-align: center; width: 200px;" xmlns="http://www.w3.org/1999/xhtml"><span class="nodeLabel"><p>КП отправлено 15.02<br />✅ Задача: Позвонить 16.02<br />📧 КП: link/to/proposal.pdf<br />⚠️ Нет прозвона 3 дня</p></span></div></foreignObject></g></g><g class="node default" id="flowchart-C2-7" transform="translate(875.9833374023438, 322)"><rect class="basic label-container" style="" x="-130" y="-63" width="260" height="126"/><g class="label" style="" transform="translate(-100, -48)"><rect/><foreignObject width="200" height="96"><div style="display: table; white-space: break-spaces; line-height: 1.5; max-width: 200px; text-align: center; width: 200px;" xmlns="http://www.w3.org/1999/xhtml"><span class="nodeLabel"><p>КП просмотрено клиентом<br />✅ Задача: Уточнить вопросы<br />📞 2 пропущенных звонка</p></span></div></foreignObject></g></g><g class="node default" id="flowchart-C3-8" transform="translate(875.9833374023438, 118)"><rect class="basic label-container" style="" x="-130" y="-75" width="260" height="150"/><g class="label" style="" transform="translate(-100, -60)"><rect/><foreignObject width="200" height="120"><div style="display: table; white-space: break-spaces; line-height: 1.5; max-width: 200px; text-align: center; width: 200px;" xmlns="http://www.w3.org/1999/xhtml"><span class="nodeLabel"><p>Замер назначен<br />✅ Задачи: Выезд на замер<br />📅 20.02 в 14:00<br />👤 Менеджер: Иванов</p></span></div></foreignObject></g></g><g class="node default" id="flowchart-D1-9" transform="translate(1360.6999969482422, 522)"><rect class="basic label-container" style="" x="-130" y="-75" width="260" height="150"/><g class="label" style="" transform="translate(-100, -60)"><rect/><foreignObject width="200" height="120"><div style="display: table; white-space: break-spaces; line-height: 1.5; max-width: 200px; text-align: center; width: 200px;" xmlns="http://www.w3.org/1999/xhtml"><span class="nodeLabel"><p>После замера<br />✅ Задачи: Отправить точный расчет<br />Позвонить завтра<br />⚠️ Остывает 2 дня</p></span></div></foreignObject></g></g><g class="node default" id="flowchart-D2-10" transform="translate(1360.6999969482422, 322)"><rect class="basic label-container" style="" x="-130" y="-75" width="260" height="150"/><g class="label" style="" transform="translate(-100, -60)"><rect/><foreignObject width="200" height="120"><div style="display: table; white-space: break-spaces; line-height: 1.5; max-width: 200px; text-align: center; width: 200px;" xmlns="http://www.w3.org/1999/xhtml"><span class="nodeLabel"><p>Возражения по цене<br />✅ Задачи: Предложить рассрочку<br />Показать аналоги<br />💰 Скидка 10%?</p></span></div></foreignObject></g></g><g class="node default" id="flowchart-D3-11" transform="translate(1360.6999969482422, 118)"><rect class="basic label-container" style="" x="-130" y="-63" width="260" height="126"/><g class="label" style="" transform="translate(-100, -48)"><rect/><foreignObject width="200" height="96"><div style="display: table; white-space: break-spaces; line-height: 1.5; max-width: 200px; text-align: center; width: 200px;" xmlns="http://www.w3.org/1999/xhtml"><span class="nodeLabel"><p>Согласование деталей<br />✅ Задачи: Подготовить договор<br />Уточнить дату монтажа</p></span></div></foreignObject></g></g><g class="node default" id="flowchart-E1-12" transform="translate(1845.4166564941406, 128)"><rect class="basic label-container" style="" x="-130" y="-75" width="260" height="150"/><g class="label" style="" transform="translate(-100, -60)"><rect/><foreignObject width="200" height="120"><div style="display: table; white-space: break-spaces; line-height: 1.5; max-width: 200px; text-align: center; width: 200px;" xmlns="http://www.w3.org/1999/xhtml"><span class="nodeLabel"><p>Договор на согласовании<br />✅ Задачи: Отправить на подпись<br />Получить предоплату<br />📅 Срок: до 22.02</p></span></div></foreignObject></g></g><g class="node default" id="flowchart-E2-13" transform="translate(1845.4166564941406, 328)"><rect class="basic label-container" style="" x="-130" y="-75" width="260" height="150"/><g class="label" style="" transform="translate(-100, -60)"><rect/><foreignObject width="200" height="120"><div style="display: table; white-space: break-spaces; line-height: 1.5; max-width: 200px; text-align: center; width: 200px;" xmlns="http://www.w3.org/1999/xhtml"><span class="nodeLabel"><p>Предоплата получена<br />✅ Задачи: Передать в производство<br />Заказ материалов<br />🔧 Производство: 7 дней</p></span></div></foreignObject></g></g><g class="node default" id="flowchart-F1-14" transform="translate(2205.4166564941406, 128)"><rect class="basic label-container" style="" x="-130" y="-75" width="260" height="150"/><g class="label" style="" transform="translate(-100, -60)"><rect/><foreignObject width="200" height="120"><div style="display: table; white-space: break-spaces; line-height: 1.5; max-width: 200px; text-align: center; width: 200px;" xmlns="http://www.w3.org/1999/xhtml"><span class="nodeLabel"><p>✅ Окна установлены<br />📞 Отзыв получен<br />⭐ Оценка: 5/5<br />🎁 Реферальная программа</p></span></div></foreignObject></g></g><g class="node default" id="flowchart-F2-15" transform="translate(2205.4166564941406, 328)"><rect class="basic label-container" style="" x="-130" y="-75" width="260" height="150"/><g class="label" style="" transform="translate(-100, -60)"><rect/><foreignObject width="200" height="120"><div style="display: table; white-space: break-spaces; line-height: 1.5; max-width: 200px; text-align: center; width: 200px;" xmlns="http://www.w3.org/1999/xhtml"><span class="nodeLabel"><p>✅ Сделка закрыта<br />💰 Выручка: 85 000 руб<br />📊 Воронка: 14 дней<br />👏 Менеджер: +5% к премии</p></span></div></foreignObject></g></g><g class="node default" id="flowchart-LOST1-45" transform="translate(1360.6999969482422, 700)"><rect class="basic label-container" style="" x="-56.741668701171875" y="-27" width="113.48333740234375" height="54"/><g class="label" style="" transform="translate(-26.741668701171875, -12)"><rect/><foreignObject width="53.48333740234375" height="24"><div style="display: table-cell; white-space: nowrap; line-height: 1.5; max-width: 200px; text-align: center;" xmlns="http://www.w3.org/1999/xhtml"><span class="nodeLabel"><p>Потеря</p></span></div></foreignObject></g></g><g class="node default" id="flowchart-LOST2-47" transform="translate(1845.4166564941406, 528)"><rect class="basic label-container" style="" x="-56.741668701171875" y="-27" width="113.48333740234375" height="54"/><g class="label" style="" transform="translate(-26.741668701171875, -12)"><rect/><foreignObject width="53.48333740234375" height="24"><div style="display: table-cell; white-space: nowrap; line-height: 1.5; max-width: 200px; text-align: center;" xmlns="http://www.w3.org/1999/xhtml"><span class="nodeLabel"><p>Потеря</p></span></div></foreignObject></g></g></g></g></g></svg>